# xmcd CD database file
#
# Track frame offsets:
#	182
#	21642
#	69270
#	84205
#	98675
#	117982
#	132085
#	170500
#
# Disc length: 2624 seconds
#
# Revision: 8
# Processed by: cddbd v1.5.2PL0 Copyright (c) Steve Scherf et al.
# Submitted via: CDex 1.70beta2
#
DISCID=5f0a3e08
DTITLE=Philippe de Canck - Mysteries Of Life - Stonehenge.Sanctuary For The Worship Of The Sun
DYEAR=1992
DGENRE=New Age
TTITLE0=Equinox Celebration
TTITLE1=Storm On Stonehenge
TTITLE2=Initiation
TTITLE3=Megalith's Levitation
TTITLE4=The Sun Through the Heel Stone
TTITLE5=Druid's Dance
TTITLE6=Lover's Walk In Stonehenge
TTITLE7=Full Moon's Shadow
EXTD=American release version. YEAR: 1992
EXTT0=
EXTT1=
EXTT2=
EXTT3=
EXTT4=
EXTT5=
EXTT6=
EXTT7=
PLAYORDER=
